<?xml version="1.0" standalone="no"?>
<!DOCTYPE svg PUBLIC "-//W3C//DTD SVG 20010904//EN"
 "http://www.w3.org/TR/2001/REC-SVG-20010904/DTD/svg10.dtd">
<svg version="1.0" xmlns="http://www.w3.org/2000/svg"
 width="512.000000pt" height="512.000000pt" viewBox="0 0 512.000000 512.000000"
 preserveAspectRatio="xMidYMid meet">
<metadata>
Created by potrace 1.11, written by Peter Selinger 2001-2013
</metadata>
<g transform="translate(0.000000,512.000000) scale(0.100000,-0.100000)"
fill="#000000" stroke="none">
<path d="M3030 4734 c-23 -7 -43 -44 -47 -89 -12 -112 -43 -163 -179 -296
-264 -258 -321 -391 -323 -756 -1 -89 -4 -113 -15 -113 -7 0 -25 -9 -40 -21
-23 -18 -26 -28 -26 -81 l0 -60 -97 4 c-109 4 -121 9 -243 108 -185 148 -404
227 -637 228 -59 0 -130 -4 -158 -9 -27 -5 -60 -11 -73 -14 -159 -29 -366
-141 -493 -267 -168 -166 -268 -362 -303 -593 -11 -69 -17 -145 -31 -350 -3
-44 -7 -100 -10 -125 -13 -125 -24 -246 -30 -330 -3 -36 -7 -85 -10 -110 -6
-64 -14 -145 -20 -215 -2 -33 -7 -89 -10 -125 -3 -36 -7 -83 -10 -105 -5 -48
-12 -124 -21 -225 -3 -41 -8 -91 -10 -110 -15 -150 -18 -207 -18 -290 -1 -82
3 -103 26 -153 70 -149 252 -255 439 -255 133 0 225 41 311 140 29 34 58 66
63 72 6 6 48 56 94 111 45 55 90 109 100 120 23 28 169 207 276 340 49 61 116
143 148 183 l60 72 156 1 c185 1 191 1 256 38 89 50 145 147 145 251 0 30 6
47 25 66 l25 25 215 -3 c252 -4 245 0 256 -107 12 -111 63 -192 153 -239 49
-26 58 -27 228 -30 l177 -4 208 -256 c286 -354 497 -606 565 -673 73 -74 140
-101 259 -105 52 -2 107 2 139 11 142 37 267 133 318 242 23 50 27 71 27 153
0 52 -4 124 -7 160 -4 36 -10 97 -13 135 -4 39 -8 86 -10 105 -2 19 -6 71 -10
115 -3 44 -8 94 -10 110 -2 17 -7 66 -10 110 -3 44 -8 96 -10 115 -6 46 -13
123 -30 340 -3 36 -8 81 -10 100 -2 19 -7 71 -10 115 -4 44 -8 96 -10 115 -2
19 -7 71 -10 115 -21 311 -35 410 -72 524 -107 331 -377 585 -718 677 -84 23
-122 27 -235 28 -74 1 -157 -2 -185 -6 -148 -22 -331 -100 -451 -193 -172
-132 -164 -129 -275 -133 l-99 -4 0 56 c0 47 -4 61 -25 81 -13 14 -32 25 -41
25 -15 0 -16 15 -11 168 11 285 42 356 246 557 120 117 193 207 217 264 26 61
43 169 33 206 -15 52 -55 73 -109 59z m723 -1515 c123 -34 167 -197 78 -291
-69 -74 -181 -79 -253 -11 -99 93 -59 264 70 303 38 12 61 11 105 -1z m-2153
-141 c-1 -79 -1 -173 0 -209 l0 -66 210 1 210 2 0 -183 0 -183 -210 0 -210 0
0 -210 0 -210 -180 0 -180 0 0 210 c0 116 -3 211 -7 211 -5 1 -98 2 -208 3
l-200 1 -3 181 -2 180 210 -1 210 -2 0 208 0 209 180 0 181 0 -1 -142z m1752
-287 c15 -5 41 -24 57 -42 108 -113 29 -300 -128 -302 -118 -1 -204 112 -172
228 27 101 141 156 243 116z m838 1 c39 -15 87 -66 100 -107 46 -140 -87 -277
-224 -230 -99 34 -150 146 -111 240 37 88 145 133 235 97z m-400 -434 c58 -32
85 -81 85 -153 0 -50 -5 -70 -27 -102 -58 -88 -186 -105 -264 -36 -40 37 -55
65 -61 121 -15 144 139 242 267 170z m-3089 -401 c111 -119 247 -209 386 -256
134 -45 182 -53 341 -55 142 -2 158 -7 143 -50 -15 -39 -47 -46 -191 -42 -74
2 -151 7 -170 10 -225 44 -451 164 -596 318 -47 50 -51 58 -47 93 9 89 37 85
134 -18z m3833 70 c11 -8 19 -28 20 -53 2 -34 -4 -45 -49 -93 -141 -150 -381
-277 -595 -316 -19 -4 -100 -8 -178 -10 -140 -4 -145 -3 -167 19 -26 26 -24
62 4 70 9 2 58 3 109 2 162 -5 309 27 457 99 114 56 206 126 293 221 37 40 72
74 78 74 5 0 18 -6 28 -13z"/>
</g>
</svg>
